<svg width="100" height="100" viewBox="0 0 100 100" fill="none" xmlns="http://www.w3.org/2000/svg">
<path fill-rule="evenodd" clip-rule="evenodd" d="M19.395 4.395C15 8.785 15 15.86 15 30V70C15 84.14 15 91.215 19.395 95.605C23.785 100 30.86 100 45 100H55C69.14 100 76.215 100 80.605 95.605C85 91.215 85 84.14 85 70V30C85 15.86 85 8.785 80.605 4.395C76.215 -2.98023e-07 69.14 0 55 0H45C30.86 0 23.785 -2.98023e-07 19.395 4.395ZM31.25 75C31.25 74.0054 31.6451 73.0516 32.3484 72.3483C33.0516 71.6451 34.0054 71.25 35 71.25H50C50.9946 71.25 51.9484 71.6451 52.6516 72.3483C53.3549 73.0516 53.75 74.0054 53.75 75C53.75 75.9946 53.3549 76.9484 52.6516 77.6517C51.9484 78.3549 50.9946 78.75 50 78.75H35C34.0054 78.75 33.0516 78.3549 32.3484 77.6517C31.6451 76.9484 31.25 75.9946 31.25 75ZM35 51.25C34.0054 51.25 33.0516 51.6451 32.3484 52.3484C31.6451 53.0516 31.25 54.0054 31.25 55C31.25 55.9946 31.6451 56.9484 32.3484 57.6516C33.0516 58.3549 34.0054 58.75 35 58.75H65C65.9946 58.75 66.9484 58.3549 67.6516 57.6516C68.3549 56.9484 68.75 55.9946 68.75 55C68.75 54.0054 68.3549 53.0516 67.6516 52.3484C66.9484 51.6451 65.9946 51.25 65 51.25H35ZM31.25 35C31.25 34.0054 31.6451 33.0516 32.3484 32.3484C33.0516 31.6451 34.0054 31.25 35 31.25H65C65.9946 31.25 66.9484 31.6451 67.6516 32.3484C68.3549 33.0516 68.75 34.0054 68.75 35C68.75 35.9946 68.3549 36.9484 67.6516 37.6516C66.9484 38.3549 65.9946 38.75 65 38.75H35C34.0054 38.75 33.0516 38.3549 32.3484 37.6516C31.6451 36.9484 31.25 35.9946 31.25 35Z" fill="#E2E8F0"/>
<path opacity="0.5" d="M16.175 10.2899C15 14.7049 15 20.8849 15 29.9999V69.9999C15 79.1149 15 85.2899 16.175 89.7099L15 89.6199C10.125 89.1399 6.845 88.0549 4.395 85.6049C-2.98023e-07 81.2149 0 74.1399 0 59.9999V39.9999C0 25.8549 -2.98023e-07 18.7849 4.395 14.3949C6.845 11.9449 10.125 10.8599 15 10.3799L16.175 10.2899ZM83.825 89.7099C85 85.2899 85 79.1099 85 69.9999V29.9999C85 20.8849 85 14.7049 83.825 10.2899L85 10.3799C89.875 10.8599 93.155 11.9449 95.605 14.3949C100 18.7849 100 25.8499 100 39.9949V59.9949C100 74.1449 100 81.2099 95.605 85.6049C93.155 88.0549 89.875 89.1399 85 89.6199L83.825 89.7099Z" fill="#E2E8F0"/>
</svg>
