<svg width="21" height="21" viewBox="0 0 21 21" fill="none" xmlns="http://www.w3.org/2000/svg">
<path d="M8.99395 0V12.1445H12.0061V0H8.99395ZM3.07489 3.07489C1.17476 4.97502 0 7.60049 0 10.5C0 16.299 4.70101 21 10.5 21C16.299 21 21 16.299 21 10.5C21 7.60049 19.8252 4.97502 17.9251 3.07489L15.8102 5.18977C17.1693 6.54878 18.0097 8.42642 18.0097 10.5C18.0097 14.6472 14.6472 18.0097 10.5 18.0097C6.35283 18.0097 2.99029 14.6472 2.99029 10.5C2.99029 8.42642 3.83073 6.54878 5.18977 5.18977L3.07489 3.07489Z" fill="#C25F5F"/>
</svg>
