<svg width="280" height="280" viewBox="0 0 280 280" fill="none" xmlns="http://www.w3.org/2000/svg">
<rect width="280" height="280" rx="15" fill="#667FA2" fill-opacity="0.5"/>
<rect y="195" width="280" height="85" rx="15" fill="#778BA8"/>
<path d="M35 237.5C35 232.806 38.8056 229 43.5 229H237.5C242.194 229 246 232.806 246 237.5V237.5C246 242.194 242.194 246 237.5 246H43.5C38.8056 246 35 242.194 35 237.5V237.5Z" fill="#CBD5E1"/>
<path fill-rule="evenodd" clip-rule="evenodd" d="M109.395 52.395C105 56.785 105 63.86 105 78V118C105 132.14 105 139.215 109.395 143.605C113.785 148 120.86 148 135 148H145C159.14 148 166.215 148 170.605 143.605C175 139.215 175 132.14 175 118V78C175 63.86 175 56.785 170.605 52.395C166.215 48 159.14 48 145 48H135C120.86 48 113.785 48 109.395 52.395ZM121.25 123C121.25 122.005 121.645 121.052 122.348 120.348C123.052 119.645 124.005 119.25 125 119.25H140C140.995 119.25 141.948 119.645 142.652 120.348C143.355 121.052 143.75 122.005 143.75 123C143.75 123.995 143.355 124.948 142.652 125.652C141.948 126.355 140.995 126.75 140 126.75H125C124.005 126.75 123.052 126.355 122.348 125.652C121.645 124.948 121.25 123.995 121.25 123ZM125 99.25C124.005 99.25 123.052 99.6451 122.348 100.348C121.645 101.052 121.25 102.005 121.25 103C121.25 103.995 121.645 104.948 122.348 105.652C123.052 106.355 124.005 106.75 125 106.75H155C155.995 106.75 156.948 106.355 157.652 105.652C158.355 104.948 158.75 103.995 158.75 103C158.75 102.005 158.355 101.052 157.652 100.348C156.948 99.6451 155.995 99.25 155 99.25H125ZM121.25 83C121.25 82.0054 121.645 81.0516 122.348 80.3484C123.052 79.6451 124.005 79.25 125 79.25H155C155.995 79.25 156.948 79.6451 157.652 80.3484C158.355 81.0516 158.75 82.0054 158.75 83C158.75 83.9946 158.355 84.9484 157.652 85.6516C156.948 86.3549 155.995 86.75 155 86.75H125C124.005 86.75 123.052 86.3549 122.348 85.6516C121.645 84.9484 121.25 83.9946 121.25 83Z" fill="white" fill-opacity="0.6"/>
<path opacity="0.5" d="M106.175 58.2899C105 62.7049 105 68.8849 105 77.9999V118C105 127.115 105 133.29 106.175 137.71L105 137.62C100.125 137.14 96.845 136.055 94.395 133.605C90 129.215 90 122.14 90 108V87.9999C90 73.8549 90 66.7849 94.395 62.3949C96.845 59.9449 100.125 58.8599 105 58.3799L106.175 58.2899ZM173.825 137.71C175 133.29 175 127.11 175 118V77.9999C175 68.8849 175 62.7049 173.825 58.2899L175 58.3799C179.875 58.8599 183.155 59.9449 185.605 62.3949C190 66.7849 190 73.8499 190 87.9949V107.995C190 122.145 190 129.21 185.605 133.605C183.155 136.055 179.875 137.14 175 137.62L173.825 137.71Z" fill="white" fill-opacity="0.6"/>
<rect x="242" y="13" width="24.8444" height="10.9778" rx="5.48889" fill="#D8D8D8"/>
</svg>
