<svg width="302" height="245" viewBox="0 0 302 245" fill="none" xmlns="http://www.w3.org/2000/svg">
<rect width="302" height="245" rx="15" fill="#667FA2" fill-opacity="0.5"/>
<rect x="5" y="195" width="141" height="45" rx="10" fill="#778BA8"/>
<path d="M12 217.5C12 214.462 14.4624 212 17.5 212H133.5C136.538 212 139 214.462 139 217.5V217.5C139 220.538 136.538 223 133.5 223H17.5C14.4624 223 12 220.538 12 217.5V217.5Z" fill="#CBD5E1"/>
<rect x="156" y="195" width="141" height="45" rx="10" fill="#778BA8"/>
<path d="M163 217.5C163 214.462 165.462 212 168.5 212H284.5C287.538 212 290 214.462 290 217.5V217.5C290 220.538 287.538 223 284.5 223H168.5C165.462 223 163 220.538 163 217.5V217.5Z" fill="#CBD5E1"/>
<path d="M14.999 152H287.001" stroke="white" stroke-linecap="round"/>
<path d="M14.999 124H287.001" stroke="white" stroke-linecap="round"/>
<path d="M15 94H287.002" stroke="white" stroke-linecap="round"/>
<path d="M15 66H287.002" stroke="white" stroke-linecap="round"/>
<path d="M14.999 38H287.001" stroke="white" stroke-linecap="round"/>
<path d="M15 55.5C15 52.4624 17.4624 50 20.5 50H281.5C284.538 50 287 52.4624 287 55.5V55.5C287 58.5376 284.538 61 281.5 61H20.5C17.4624 61 15 58.5376 15 55.5V55.5Z" fill="#CBD5E1"/>
<path d="M15 83.5C15 80.4624 17.4624 78 20.5 78H281.5C284.538 78 287 80.4624 287 83.5V83.5C287 86.5376 284.538 89 281.5 89H20.5C17.4624 89 15 86.5376 15 83.5V83.5Z" fill="#CBD5E1"/>
<path d="M15 111.5C15 108.462 17.4624 106 20.5 106H281.5C284.538 106 287 108.462 287 111.5V111.5C287 114.538 284.538 117 281.5 117H20.5C17.4624 117 15 114.538 15 111.5V111.5Z" fill="#CBD5E1"/>
<path d="M15 139.5C15 136.462 17.4624 134 20.5 134H281.5C284.538 134 287 136.462 287 139.5V139.5C287 142.538 284.538 145 281.5 145H20.5C17.4624 145 15 142.538 15 139.5V139.5Z" fill="#CBD5E1"/>
<path d="M15 27.5C15 24.4624 17.4624 22 20.5 22H281.5C284.538 22 287 24.4624 287 27.5V27.5C287 30.5376 284.538 33 281.5 33H20.5C17.4624 33 15 30.5376 15 27.5V27.5Z" fill="#CBD5E1"/>
</svg>
