<svg width="16" height="13" viewBox="0 0 16 13" fill="none" xmlns="http://www.w3.org/2000/svg">
<path d="M7.98583 13C7.77125 13 7.55877 12.958 7.36053 12.8763C7.16229 12.7946 6.98216 12.6749 6.83043 12.524C6.6787 12.3732 6.55834 12.194 6.47623 11.9969C6.39411 11.7997 6.35185 11.5884 6.35185 11.375C6.35185 11.1616 6.39411 10.9503 6.47623 10.7531C6.55834 10.556 6.6787 10.3768 6.83043 10.226C6.98216 10.0751 7.16229 9.95536 7.36053 9.8737C7.55877 9.79203 7.77125 9.75 7.98583 9.75C8.41919 9.75 8.83479 9.92121 9.14123 10.226C9.44766 10.5307 9.61981 10.944 9.61981 11.375C9.61981 11.806 9.44766 12.2193 9.14123 12.524C8.83479 12.8288 8.41919 13 7.98583 13ZM7.98583 11.9167C8.13028 11.9167 8.26882 11.8596 8.37096 11.758C8.4731 11.6564 8.53049 11.5187 8.53049 11.375C8.53049 11.2313 8.4731 11.0936 8.37096 10.992C8.26882 10.8904 8.13028 10.8333 7.98583 10.8333C7.84137 10.8333 7.70284 10.8904 7.60069 10.992C7.49855 11.0936 7.44117 11.2313 7.44117 11.375C7.44117 11.5187 7.49855 11.6564 7.60069 11.758C7.70284 11.8596 7.84137 11.9167 7.98583 11.9167ZM11.4597 7.97334C11.5536 8.07798 11.6031 8.21478 11.5977 8.35496C11.5922 8.49514 11.5323 8.62776 11.4305 8.7249C11.3288 8.82204 11.1931 8.87612 11.052 8.87577C10.911 8.87542 10.7755 8.82065 10.6743 8.723C10.3273 8.36162 9.91004 8.07423 9.44786 7.8783C8.98568 7.68238 8.48824 7.58202 7.98583 7.58334C6.96513 7.58334 6.01089 7.99283 5.31372 8.70675C5.21267 8.80807 5.07548 8.86563 4.93199 8.86693C4.7885 8.86823 4.65029 8.81316 4.54739 8.71368C4.4445 8.61421 4.38523 8.47837 4.38248 8.33568C4.37972 8.193 4.4337 8.055 4.53268 7.95167C4.98065 7.49136 5.51731 7.12556 6.11062 6.87614C6.70392 6.62672 7.34169 6.4988 7.98583 6.5C9.3148 6.5 10.5577 7.03842 11.4597 7.97334ZM13.6601 5.655C13.7097 5.70629 13.7486 5.76678 13.7746 5.83303C13.8007 5.89928 13.8134 5.96998 13.812 6.0411C13.8106 6.11222 13.7951 6.18237 13.7664 6.24754C13.7377 6.31271 13.6964 6.37162 13.6448 6.42092C13.5933 6.47021 13.5324 6.50893 13.4658 6.53484C13.3992 6.56076 13.3281 6.57337 13.2566 6.57196C13.1851 6.57055 13.1146 6.55515 13.049 6.52663C12.9835 6.49811 12.9243 6.45704 12.8747 6.40575C12.2431 5.74947 11.4842 5.22743 10.6438 4.87122C9.80353 4.51501 8.89929 4.33202 7.98583 4.33334C7.07968 4.33218 6.18257 4.51238 5.34791 4.86321C4.51325 5.21404 3.75811 5.72832 3.12746 6.37542C3.02678 6.47857 2.88901 6.53771 2.74448 6.53985C2.59995 6.54198 2.46048 6.48692 2.35677 6.38679C2.25305 6.28666 2.19358 6.14966 2.19143 6.00592C2.18929 5.86218 2.24464 5.72348 2.34533 5.62034C3.07762 4.86924 3.95435 4.27232 4.92336 3.86511C5.89238 3.4579 6.93386 3.24871 7.98583 3.25C9.04616 3.24853 10.0958 3.4609 11.0713 3.87427C12.0467 4.28764 12.9278 4.89342 13.6612 5.655M15.8616 3.33884C15.9556 3.44348 16.005 3.58029 15.9996 3.72047C15.9942 3.86065 15.9343 3.99326 15.8325 4.0904C15.7307 4.18754 15.595 4.24163 15.454 4.24127C15.3129 4.24092 15.1775 4.18615 15.0762 4.0885C14.1598 3.13718 13.0591 2.38042 11.8404 1.86392C10.6218 1.34741 9.31052 1.08187 7.98583 1.08334C6.67158 1.08209 5.3705 1.34365 4.15993 1.85247C2.94937 2.36128 1.85402 3.10696 0.939016 4.04517C0.889361 4.09701 0.829866 4.13854 0.763971 4.16737C0.698076 4.19619 0.627089 4.21174 0.555113 4.21312C0.483138 4.21449 0.411602 4.20166 0.344644 4.17537C0.277685 4.14908 0.216631 4.10985 0.165013 4.05995C0.113394 4.01004 0.0722351 3.95046 0.0439154 3.88464C0.0155957 3.81882 0.00067714 3.74807 2.25211e-05 3.67648C-0.000632098 3.60489 0.0129901 3.53388 0.0401015 3.46756C0.067213 3.40123 0.107276 3.34092 0.157973 3.29009C1.17449 2.24801 2.39126 1.41977 3.73598 0.854579C5.0807 0.289386 6.52594 -0.00122782 7.98583 4.49033e-06C9.45729 -0.00132782 10.9138 0.293834 12.2674 0.867677C13.621 1.44152 14.8437 2.28215 15.8616 3.33884Z" fill="#E2E8F0"/>
</svg>
