<svg width="19" height="15" viewBox="0 0 19 15" fill="none" xmlns="http://www.w3.org/2000/svg">
<path d="M17 5.707L17.707 6.414L18.414 5.707L17.707 5L17 5.707ZM0 13.707C0 13.9722 0.105357 14.2266 0.292893 14.4141C0.48043 14.6016 0.734784 14.707 1 14.707C1.26522 14.707 1.51957 14.6016 1.70711 14.4141C1.89464 14.2266 2 13.9722 2 13.707H0ZM12.707 11.414L17.707 6.414L16.293 5L11.293 10L12.707 11.414ZM17.707 5L12.707 0L11.293 1.414L16.293 6.414L17.707 5ZM17 4.707H7V6.707H17V4.707ZM0 11.707V13.707H2V11.707H0ZM7 4.707C5.14348 4.707 3.36301 5.4445 2.05025 6.75725C0.737498 8.07001 0 9.85048 0 11.707H2C2 10.3809 2.52678 9.10915 3.46447 8.17147C4.40215 7.23378 5.67392 6.707 7 6.707V4.707Z" fill="white"/>
</svg>
