<svg width="22" height="22" viewBox="0 0 22 22" fill="none" xmlns="http://www.w3.org/2000/svg">
<path fill-rule="evenodd" clip-rule="evenodd" d="M15.3138 13.0915C16.2277 11.7491 16.7619 10.1274 16.7619 8.38096C16.7619 3.75228 13.0096 0 8.38095 0C3.75225 0 0 3.75228 0 8.38096C0 13.0097 3.75225 16.7619 8.38095 16.7619C10.1274 16.7619 11.749 16.2277 13.0915 15.3139L19.3174 21.5398C19.9311 22.1534 20.9261 22.1534 21.5397 21.5398C22.1534 20.9261 22.1534 19.9311 21.5397 19.3174L15.3138 13.0915ZM8.38095 13.6191C5.48805 13.6191 3.14286 11.2739 3.14286 8.38096C3.14286 5.48804 5.48805 3.14286 8.38095 3.14286C11.2738 3.14286 13.619 5.48804 13.619 8.38096C13.619 11.2739 11.2738 13.6191 8.38095 13.6191Z" fill="#A3A2AD"/>
</svg>
