<svg width="16" height="17" viewBox="0 0 16 17" fill="none" xmlns="http://www.w3.org/2000/svg">
<path d="M8.25545 16.5667L8.24687 16.5682L8.19154 16.5955L8.17596 16.5986L8.16504 16.5955L8.10971 16.5682C8.1014 16.5656 8.09517 16.5669 8.09101 16.5721L8.08789 16.5799L8.07464 16.9135L8.07854 16.929L8.08633 16.9392L8.16738 16.9968L8.17907 17L8.18842 16.9968L8.26947 16.9392L8.27882 16.9267L8.28194 16.9135L8.26869 16.5807C8.26662 16.5724 8.2622 16.5677 8.25545 16.5667ZM8.46196 16.4786L8.45183 16.4802L8.30766 16.5526L8.29987 16.5604L8.29753 16.569L8.31156 16.9041L8.31545 16.9135L8.32169 16.9189L8.47833 16.9914C8.4882 16.994 8.49573 16.9919 8.50093 16.9852L8.50405 16.9742L8.47755 16.4957C8.47495 16.4864 8.46976 16.4807 8.46196 16.4786ZM7.90475 16.4802C7.90132 16.4781 7.89721 16.4774 7.89329 16.4783C7.88937 16.4791 7.88594 16.4815 7.88371 16.4848L7.87904 16.4957L7.85254 16.9742C7.85306 16.9836 7.85747 16.9898 7.86579 16.993L7.87748 16.9914L8.03412 16.9189L8.04191 16.9127L8.04503 16.9041L8.05828 16.569L8.05594 16.5597L8.04815 16.5519L7.90475 16.4802Z" fill="#E2E8F0"/>
<path d="M7.79316 0C12.0973 0 15.5863 3.489 15.5863 7.79316C15.5863 12.0973 12.0973 15.5863 7.79316 15.5863C3.489 15.5863 0 12.0973 0 7.79316C0 3.489 3.489 0 7.79316 0ZM7.79316 1.55863C6.13966 1.55863 4.55388 2.21548 3.38468 3.38468C2.21548 4.55388 1.55863 6.13966 1.55863 7.79316C1.55863 9.44666 2.21548 11.0324 3.38468 12.2016C4.55388 13.3708 6.13966 14.0277 7.79316 14.0277C9.44666 14.0277 11.0324 13.3708 12.2016 12.2016C13.3708 11.0324 14.0277 9.44666 14.0277 7.79316C14.0277 6.13966 13.3708 4.55388 12.2016 3.38468C11.0324 2.21548 9.44666 1.55863 7.79316 1.55863ZM7.79316 3.11726C7.98404 3.11729 8.16827 3.18737 8.31092 3.31421C8.45356 3.44105 8.54469 3.61583 8.56702 3.8054L8.57248 3.89658V7.47052L10.6821 9.58013C10.8219 9.72038 10.903 9.90856 10.909 10.1065C10.9151 10.3044 10.8456 10.4972 10.7146 10.6457C10.5837 10.7942 10.4011 10.8873 10.204 10.9061C10.0069 10.9248 9.81002 10.8679 9.65339 10.7468L9.58013 10.6821L7.24218 8.34414C7.12106 8.22291 7.04327 8.06514 7.02086 7.89525L7.01384 7.79316V3.89658C7.01384 3.68989 7.09595 3.49167 7.2421 3.34552C7.38825 3.19937 7.58647 3.11726 7.79316 3.11726Z" fill="#E2E8F0"/>
</svg>
