<svg width="19" height="17" viewBox="0 0 19 17" fill="none" xmlns="http://www.w3.org/2000/svg">
<path d="M9.63024 0.241045C9.61099 0.221797 9.59081 0.20359 9.56975 0.186316C9.56048 0.178748 9.55072 0.172168 9.54124 0.165038C9.52928 0.156045 9.51755 0.146778 9.5051 0.138497C9.49347 0.130711 9.48141 0.123964 9.46951 0.116836C9.45843 0.1102 9.44757 0.103235 9.43617 0.0971479C9.42394 0.0905676 9.41132 0.0850296 9.39882 0.0791626C9.38703 0.0735683 9.3754 0.0676451 9.36329 0.0626545C9.35106 0.0576096 9.33861 0.0534973 9.32621 0.0491104C9.31327 0.0444489 9.30055 0.0395126 9.28733 0.0355091C9.27494 0.0317802 9.26233 0.0289841 9.24982 0.0258579C9.23633 0.0224581 9.22301 0.0186739 9.2093 0.0159321C9.19488 0.0130806 9.18029 0.0113802 9.16576 0.00929642C9.15375 0.00759697 9.1419 0.00529385 9.12967 0.00408745C9.10269 0.00145435 9.0756 -2.47955e-05 9.04851 -2.47955e-05C9.02142 -2.47955e-05 8.99433 0.00139999 8.96741 0.00408745C8.95501 0.00529385 8.94306 0.00759697 8.93083 0.00935173C8.91646 0.0113811 8.90209 0.0130806 8.88783 0.0159321C8.87385 0.0186739 8.8602 0.0225677 8.84649 0.026022C8.83426 0.0291481 8.82192 0.0317802 8.8098 0.0354538C8.79631 0.039567 8.78331 0.0446138 8.7701 0.0493298C8.75798 0.0537167 8.74575 0.0576649 8.73379 0.0626011C8.72145 0.0677004 8.70966 0.073678 8.69765 0.079381C8.68531 0.0851946 8.67287 0.0906773 8.6608 0.0971479C8.64929 0.10329 8.63843 0.110255 8.6273 0.116946C8.6154 0.124075 8.60333 0.130764 8.59176 0.138552C8.57959 0.146667 8.56812 0.155772 8.55644 0.164491C8.54663 0.17184 8.53659 0.178639 8.52705 0.186426C8.50703 0.202878 8.4879 0.220262 8.46952 0.238467C8.46865 0.239346 8.46766 0.240004 8.46684 0.240881L4.62802 4.07948C4.30678 4.40072 4.30678 4.92153 4.62802 5.24277C4.94921 5.56396 5.47007 5.56402 5.79131 5.24283L8.22593 2.80837L8.22593 12.887C8.22593 13.3412 8.59423 13.7095 9.04851 13.7095C9.5028 13.7095 9.87109 13.3412 9.87109 12.887L9.87109 2.80843L12.3055 5.24277C12.6267 5.56402 13.1475 5.56402 13.4688 5.24277C13.79 4.92153 13.79 4.40072 13.4688 4.07948L9.63024 0.241045Z" fill="white"/>
<path d="M17.2742 8.22579C16.8199 8.22579 16.4516 8.59408 16.4516 9.04837V15.3548H1.64516V9.04837C1.64516 8.59408 1.27686 8.22579 0.82258 8.22579C0.368297 8.22579 0 8.59408 0 9.04837V16.1774C0 16.6317 0.368297 17 0.82258 17H17.2742C17.7285 17 18.0968 16.6317 18.0968 16.1774V9.04837C18.0968 8.59408 17.7285 8.22579 17.2742 8.22579Z" fill="white"/>
</svg>
